Coordinates
version=1
nRows=15
nColumns=34
inDegrees=no

Units are S.I. units (second, meters, Newtons, ...)
If the header above contains a line with 'inDegrees', this indicates whether rotational values are in degrees (yes) or radians (no).

endheader
time	pelvis_tilt	pelvis_list	pelvis_rotation	pelvis_tx	pelvis_ty	pelvis_tz	hip_flexion_r	hip_adduction_r	hip_rotation_r	knee_angle_r	ankle_angle_r	subtalar_angle_r	mtp_angle_r	hip_flexion_l	hip_adduction_l	hip_rotation_l	knee_angle_l	ankle_angle_l	subtalar_angle_l	mtp_angle_l	lumbar_extension	lumbar_bending	lumbar_rotation	arm_flex_r	arm_add_r	arm_rot_r	elbow_flex_r	pro_sup_r	arm_flex_l	arm_add_l	arm_rot_l	elbow_flex_l	pro_sup_l
0.644	-0.0771593	-0.027813	0.323176	0.178253	0.977887	0.19855	0.721812	-0.28091	-0.120617	2.53603	-0.118693	-0.0938946	-0.673191	0.0502746	-0.0689964	0.0219217	0.751581	0.508689	0.270633	-0.414502	-0.248594	0.0738216	-0.338758	-0.493078	-0.26145	-0.0124696	0.556397	2.10525	0.401578	-0.29875	0.182976	1.45177	1.88885
0.648	-0.10863	-0.0643369	0.334011	0.220737	0.975051	0.197266	0.808362	-0.27454	-0.148441	2.50497	-0.101832	-0.0863573	-0.618087	0.0344239	-0.115239	0.0289723	0.70899	0.481638	0.305085	-0.493367	-0.180023	0.105205	-0.358707	-0.567905	-0.284694	0.00401227	0.577161	2.06021	0.413477	-0.271032	0.150371	1.48129	1.9339
0.652	-0.117202	-0.087607	0.314747	0.261505	0.974015	0.197219	0.879958	-0.251283	-0.150589	2.47215	-0.0890519	-0.0857538	-0.519309	-0.0181125	-0.151763	0.011539	0.654389	0.433072	0.32684	-0.602894	-0.151865	0.128646	-0.348599	-0.638666	-0.311803	0.0118251	0.605215	2.08783	0.439666	-0.248086	0.126744	1.52684	1.93076
0.656	-0.142526	-0.114088	0.304138	0.303006	0.971959	0.196763	0.962513	-0.241471	-0.162463	2.43621	-0.0815851	-0.0891735	-0.340849	-0.0513264	-0.184294	0.0030083	0.597593	0.375735	0.341493	-0.676519	-0.0998035	0.151428	-0.351352	-0.717395	-0.334629	0.0119588	0.639706	2.07772	0.456025	-0.223889	0.0978537	1.56713	1.97021
0.66	-0.161602	-0.132982	0.28525	0.344622	0.970201	0.197098	1.0395	-0.218166	-0.163148	2.39672	-0.078938	-0.0969017	-0.34112	-0.0999265	-0.208292	-0.0135113	0.529106	0.305275	0.355096	-0.743094	-0.0594753	0.167871	-0.345363	-0.796447	-0.351253	-0.0068679	0.672704	2.1054	0.475324	-0.205456	0.0787083	1.61672	1.97246
0.664	-0.183138	-0.148492	0.268146	0.386009	0.968579	0.197186	1.11288	-0.204491	-0.1644	2.35477	-0.0723298	-0.105959	-0.325198	-0.144662	-0.225321	-0.0276403	0.459712	0.214277	0.358928	-0.889528	-0.0176812	0.181298	-0.342573	-0.877043	-0.365945	-0.0279809	0.709762	2.11917	0.494756	-0.189591	0.057247	1.66012	2.02018
0.668	-0.207422	-0.162156	0.252086	0.427316	0.966884	0.197736	1.1854	-0.192401	-0.16622	2.30944	-0.0680387	-0.11757	-0.313946	-0.182873	-0.240001	-0.0470402	0.393015	0.110215	0.363103	-1.03311	0.02718	0.191758	-0.340419	-0.957731	-0.37393	-0.0637235	0.740323	2.16836	0.514352	-0.175229	0.0382231	1.70208	2.06832
0.672	-0.230065	-0.168532	0.237476	0.468455	0.96538	0.197829	1.25152	-0.187561	-0.163022	2.26164	-0.0633557	-0.12712	-0.306704	-0.222006	-0.243982	-0.055201	0.326393	-0.00720185	0.363914	-1.0472	0.0681489	0.195749	-0.33836	-1.03781	-0.375085	-0.0998254	0.776379	2.16919	0.53533	-0.161899	0.0249537	1.74776	2.09184
0.676	-0.251504	-0.17294	0.223065	0.509702	0.963843	0.198308	1.31289	-0.182144	-0.158907	2.21172	-0.0609568	-0.143425	-0.299671	-0.259907	-0.246625	-0.0673973	0.261805	-0.130973	0.350287	-1.04636	0.107301	0.19736	-0.33496	-1.11581	-0.371096	-0.138307	0.811147	2.16396	0.557412	-0.151161	0.015169	1.79195	2.11027
0.68	-0.269985	-0.174603	0.210965	0.550773	0.962806	0.198749	1.36622	-0.178188	-0.155224	2.15751	-0.0659869	-0.162628	-0.30277	-0.298327	-0.244778	-0.0651577	0.198764	-0.269557	0.325057	-0.950965	0.141721	0.196921	-0.33258	-1.1864	-0.361614	-0.187727	0.835552	2.20059	0.580201	-0.141281	0.00547144	1.83487	2.14277
0.684	-0.28355	-0.179442	0.19971	0.591911	0.962001	0.199476	1.40957	-0.170748	-0.156075	2.09987	-0.0681486	-0.184847	-0.293298	-0.33644	-0.248881	-0.0775104	0.146668	-0.390367	0.302059	-0.821762	0.170522	0.201173	-0.329193	-1.25126	-0.346115	-0.23175	0.864011	2.17642	0.604624	-0.132465	-0.00324337	1.87575	2.1785
0.688	-0.294218	-0.182064	0.187673	0.632584	0.961601	0.200004	1.44473	-0.165062	-0.157098	2.03815	-0.0655437	-0.207475	-0.320153	-0.373186	-0.249252	-0.0790976	0.108426	-0.496606	0.264061	-0.604448	0.192879	0.204798	-0.324721	-1.30669	-0.331642	-0.28314	0.881407	2.20875	0.627485	-0.125581	-0.00411496	1.92975	2.15995
0.692	-0.299305	-0.184691	0.176089	0.673057	0.96121	0.200587	1.47017	-0.156739	-0.159001	1.97489	-0.0731155	-0.237369	-0.278133	-0.408291	-0.250058	-0.0904	0.0931506	-0.548356	0.220946	-0.403093	0.206821	0.209932	-0.31982	-1.35506	-0.316373	-0.320886	0.905212	2.17097	0.652706	-0.122018	-0.00764516	1.97362	2.18379
0.696	-0.305084	-0.182555	0.169035	0.712302	0.960512	0.200553	1.49359	-0.154866	-0.155871	1.91063	-0.0638849	-0.253799	-0.277707	-0.433095	-0.244937	-0.0828574	0.098929	-0.566086	0.16145	-0.335471	0.217629	0.210084	-0.318017	-1.39328	-0.301482	-0.361993	0.920473	2.16878	0.679039	-0.119518	-0.00620317	2.02099	2.17905
0.7	-0.309652	-0.176188	0.164979	0.751089	0.959974	0.200257	1.51049	-0.158331	-0.151533	1.84377	-0.0600994	-0.272221	-0.257319	-0.449743	-0.236149	-0.0646573	0.127608	-0.557478	0.10574	-0.327516	0.223703	0.205303	-0.317991	-1.42108	-0.288462	-0.394135	0.931462	2.15191	0.704188	-0.121229	-0.0023033	2.06684	2.1912
